<svg xmlns="http://www.w3.org/2000/svg" xmlns:xlink="http://www.w3.org/1999/xlink" width="66px" height="66px" viewBox="0 0 66 66" version="1.1">
    <!-- Generator: Sketch 43.2 (39069) - http://www.bohemiancoding.com/sketch -->
    <title>01</title>
    <desc>Created with Sketch.</desc>
    <defs/>
    <g id="Linear" stroke="none" stroke-width="1" fill="none" fill-rule="evenodd">
        <g id="01">
            <circle id="Combined-Shape" fill="#0367A1" cx="33" cy="33" r="33"/>
            <path d="M33.5795389,31.8050025 L46.9447602,31.8050025 C47.0754199,32.4784719 47.1428571,33.2751369 47.1428571,34.1375062 C47.1428571,37.0367098 46.3293952,40.6217023 43.7077719,43.1759582 C41.1578006,45.7630662 37.8997382,47.1428571 33.5837538,47.1428571 C25.5840092,47.1428571 18.8571429,40.7941762 18.8571429,33 C18.8571429,25.2058238 25.5840092,18.8571429 33.5837538,18.8571429 C38.0093237,18.8571429 41.1620155,20.5490294 43.5307491,22.754231 L40.7321029,25.4809607 C39.033527,23.9286959 36.7322307,22.7213788 33.5795389,22.7213788 C27.7377866,22.7213788 23.1689124,27.3083624 23.1689124,33 C23.1689124,38.6916376 27.7377866,43.2786212 33.5795389,43.2786212 C37.3686698,43.2786212 39.526662,41.7961672 40.9091257,40.4492285 C42.0302701,39.356894 42.7678651,37.7964161 43.0586883,35.6651319 L33.5795389,35.6692384 L33.5795389,31.8050025 Z" id="Shape" fill="#FFFFFF"/>
        </g>
    </g>
</svg>