<svg xmlns="http://www.w3.org/2000/svg" xmlns:xlink="http://www.w3.org/1999/xlink" width="66px" height="66px" viewBox="0 0 66 66" version="1.1">
    <!-- Generator: Sketch 46.2 (44496) - http://www.bohemiancoding.com/sketch -->
    <title>05</title>
    <desc>Created with Sketch.</desc>
    <defs/>
    <g id="Slice" stroke="none" stroke-width="1" fill="none" fill-rule="evenodd">
        <g id="top" transform="translate(-175.000000, -109.000000)">
            <g id="05" transform="translate(175.000000, 109.000000)">
                <circle id="Combined-Shape" fill="#0367A1" cx="33" cy="33" r="33"/>
                <g id="kik" transform="translate(17.000000, 24.000000)" fill-rule="nonzero" fill="#FFFFFF">
                    <path d="M32.7927857,8.51779714 C33.8991771,8.51779714 34.7957743,9.41054143 34.7957743,10.5119614 C34.7957743,11.6132571 33.8991771,12.5060014 32.7927857,12.5060014 C31.6863943,12.5060014 30.7899214,11.6132571 30.7899214,10.5119614 C30.7897971,9.41079 31.68627,8.51779714 32.7927857,8.51779714 Z" id="Shape"/>
                    <polygon id="Shape" points="16.6677086 15.60432 13.03782 15.6041957 13.0416729 6.57521143 16.6673357 6.58788857 16.6677086 15.60432"/>
                    <path d="M14.8538829,13.7597957 C15.8440671,13.7597957 16.64658,14.5749857 16.64658,15.5804571 C16.64658,16.5859286 15.8439429,17.4011186 14.8538829,17.4011186 C13.8638229,17.4011186 13.0608129,16.5859286 13.0608129,15.5804571 C13.0608129,14.5749857 13.8636986,13.7597957 14.8538829,13.7597957 Z M14.8538829,4.71229286 C15.8440671,4.71229286 16.64658,5.52748286 16.64658,6.53332714 C16.64658,7.53917143 15.8439429,8.35423714 14.8538829,8.35423714 C13.8638229,8.35423714 13.0608129,7.53892286 13.0608129,6.53332714 C13.0608129,5.52748286 13.8636986,4.71229286 14.8538829,4.71229286 Z M1.81581429,13.8046629 C2.79493714,13.8046629 3.58850143,14.6094129 3.58850143,15.6022071 C3.58850143,16.5947529 2.79506143,17.3996271 1.81581429,17.3996271 C0.836691429,17.3996271 0.0431271429,16.5947529 0.0431271429,15.6022071 C0.0431271429,14.6094129 0.836691429,13.8046629 1.81581429,13.8046629 Z M1.82364429,0.00273428571 C2.80662,0.00273428571 3.60341571,0.816308571 3.60341571,1.82016429 C3.60341571,2.82389571 2.80662,3.63759429 1.82364429,3.63759429 C0.840792857,3.63759429 0.0437485714,2.82389571 0.0437485714,1.82016429 C0.0437485714,0.816308571 0.840792857,0.00273428571 1.82364429,0.00273428571 Z" id="Shape"/>
                    <polygon id="Shape" points="0.00422571429 1.88280429 3.62255571 1.92120857 3.64057714 8.58603 6.99007714 5.31035571 9.66172286 7.80141429 7.30489286 10.1222014 10.5987129 14.5625571 7.66134429 16.6941814 4.52300571 12.4991657 3.60913286 13.3467943 3.60900857 15.7053643 0.00397714286 15.5646729 0.00422571429 1.88280429"/>
                    <path d="M8.33348143,4.71328714 C9.33336,4.71328714 10.1438271,5.52648857 10.1438271,6.52984714 C10.1438271,7.53308143 9.33336,8.34665571 8.33348143,8.34665571 C7.33385143,8.34665571 6.52313571,7.53308143 6.52313571,6.52984714 C6.52313571,5.52661286 7.33385143,4.71328714 8.33348143,4.71328714 L8.33348143,4.71328714 Z M9.06502714,13.7498529 C10.0588157,13.7498529 10.8644357,14.5670314 10.8644357,15.5749886 C10.8644357,16.5825729 10.05894,17.3998757 9.06502714,17.3998757 C8.07111429,17.3998757 7.26537,16.5828214 7.26537,15.5749886 C7.26537,14.5670314 8.07111429,13.7498529 9.06502714,13.7498529 Z M21.0159686,13.8046629 C21.9950914,13.8046629 22.7885314,14.6094129 22.7885314,15.6022071 C22.7885314,16.5947529 21.9950914,17.3996271 21.0159686,17.3996271 C20.0364729,17.3996271 19.2431571,16.5947529 19.2431571,15.6022071 C19.2431571,14.6094129 20.0367214,13.8046629 21.0159686,13.8046629 Z M21.0236743,0.00273428571 C22.0065257,0.00273428571 22.8034457,0.816308571 22.8034457,1.82016429 C22.8034457,2.82389571 22.0067743,3.63759429 21.0236743,3.63759429 C20.0408229,3.63759429 19.2439029,2.82389571 19.2439029,1.82016429 C19.2439029,0.816308571 20.0408229,0.00273428571 21.0236743,0.00273428571 Z" id="Shape"/>
                    <polygon id="Shape" points="19.2041314 1.88280429 22.8224614 1.92120857 22.8403586 8.58603 26.1901071 5.31035571 28.8615043 7.80141429 26.5049229 10.1222014 29.7987429 14.5625571 26.86125 16.6941814 23.7230357 12.4991657 22.8091629 13.3467943 22.8090386 15.7053643 19.2038829 15.5646729 19.2041314 1.88280429"/>
                    <path d="M27.5333871,4.71328714 C28.5332657,4.71328714 29.3437329,5.52648857 29.3437329,6.52984714 C29.3437329,7.53308143 28.5332657,8.34665571 27.5333871,8.34665571 C26.5337571,8.34665571 25.7230414,7.53308143 25.7230414,6.52984714 C25.72329,5.52661286 26.5338814,4.71328714 27.5333871,4.71328714 L27.5333871,4.71328714 Z M28.2650571,13.7498529 C29.2588457,13.7498529 30.0643414,14.5670314 30.0643414,15.5749886 C30.0643414,16.5825729 29.25897,17.3998757 28.2650571,17.3998757 C27.2711443,17.3998757 26.4654,16.5828214 26.4654,15.5749886 C26.4652757,14.5670314 27.2711443,13.7498529 28.2650571,13.7498529 Z" id="Shape"/>
                </g>
            </g>
        </g>
    </g>
</svg>