<svg xmlns="http://www.w3.org/2000/svg" xmlns:xlink="http://www.w3.org/1999/xlink" width="66px" height="66px" viewBox="0 0 66 66" version="1.1">
    <!-- Generator: Sketch 46.2 (44496) - http://www.bohemiancoding.com/sketch -->
    <title>06</title>
    <desc>Created with Sketch.</desc>
    <defs/>
    <g id="Slice" stroke="none" stroke-width="1" fill="none" fill-rule="evenodd">
        <g id="top" transform="translate(-175.000000, -198.000000)">
            <g id="06" transform="translate(175.000000, 198.000000)">
                <circle id="Combined-Shape" fill="#0367A1" cx="33" cy="33" r="33"/>
                <g id="Group" transform="translate(18.000000, 19.000000)" fill="#FFFFFF">
                    <path d="M26.7120178,20.9856325 C25.8141954,20.2736825 24.8547665,19.6346675 23.9103528,18.9818775 C22.0268249,17.678835 20.3040482,17.5775525 18.8985787,19.6739625 C18.1093223,20.8509275 17.0044518,20.902475 15.8491624,20.38613 C12.6643147,18.96368 10.2049822,16.772005 8.76440355,13.583455 C8.12713959,12.17275 8.13553046,10.9079875 9.62652792,9.9102425 C10.4159315,9.3825875 11.2112234,8.7582175 11.1476294,7.60525 C11.0646041,6.10189 7.35886041,1.0778575 5.89546447,0.5475925 C5.28992386,0.328135 4.68688579,0.3424175 4.0708198,0.54636 C0.639398477,1.683015 -0.781895939,4.4627375 0.579263959,7.7540925 C4.64,17.5736375 11.7862183,24.4096625 21.623401,28.5820375 C22.184264,28.81962 22.8073223,28.914595 23.1227893,28.999855 C25.3624137,29.02204 27.9860305,26.89663 28.7437107,24.787315 C29.4732005,22.75804 27.9314898,21.952565 26.7120178,20.9856325 Z M15.6820812,1.5543275 C22.8737132,2.64364 26.1903858,6.01199 27.1061675,13.146715 C27.1911066,13.80574 26.9418832,14.797395 27.8964543,14.815665 C28.8940838,14.8344425 28.6536929,13.8574325 28.6620838,13.197755 C28.746434,6.478165 22.7981218,0.24882 15.8900127,0.01914 C15.3688223,0.0930175 14.2903756,-0.3348775 14.2231015,0.81577 C14.1782766,1.59152 15.0862563,1.464065 15.6820812,1.5543275 L15.6820812,1.5543275 Z" id="Shape"/>
                    <path d="M17.088802,3.510595 C16.3970711,3.428525 15.4838655,3.107495 15.322231,4.052895 C15.1534569,5.0452025 16.1712538,4.9444275 16.8252259,5.08863 C21.2669365,6.0664375 22.8135051,7.6588275 23.544835,11.9986775 C23.6516345,12.631385 23.439434,13.6161525 24.5310558,13.452955 C25.3400381,13.33159 25.0478299,12.4874725 25.1154721,11.9944 C25.1513173,7.827825 21.5266853,4.035495 17.088802,3.510595 L17.088802,3.510595 Z" id="Shape"/>
                    <path d="M17.4966421,6.91766 C17.0349239,6.9288975 16.5817437,6.978125 16.4120127,7.464165 C16.1571218,8.190615 16.6933274,8.3638175 17.2391015,8.450165 C19.0611701,8.73828 20.0200838,9.7965625 20.2021066,11.5862975 C20.2512741,12.0720475 20.5642386,12.46565 21.0406041,12.41026 C21.7007589,12.332685 21.7604518,11.7539175 21.7402107,11.204295 C21.7728173,9.19358 19.4655508,6.86952 17.4966421,6.91766 L17.4966421,6.91766 Z" id="Shape"/>
                </g>
            </g>
        </g>
    </g>
</svg>