<svg xmlns="http://www.w3.org/2000/svg" xmlns:xlink="http://www.w3.org/1999/xlink" width="66px" height="66px" viewBox="0 0 66 66" version="1.1">
    <!-- Generator: Sketch 46.2 (44496) - http://www.bohemiancoding.com/sketch -->
    <title>07</title>
    <desc>Created with Sketch.</desc>
    <defs/>
    <g id="Slice" stroke="none" stroke-width="1" fill="none" fill-rule="evenodd">
        <g id="top" transform="translate(-79.000000, -109.000000)">
            <g id="07" transform="translate(79.000000, 109.000000)">
                <circle id="Combined-Shape" fill="#0367A1" cx="33" cy="33" r="33"/>
                <g id="twilio" transform="translate(16.000000, 16.000000)" fill-rule="nonzero" fill="#FFFFFF">
                    <path d="M16.836266,29.2724017 C9.98838542,29.2724017 4.437,23.7210163 4.437,16.8732674 C4.437,10.0253868 9.98838542,4.47413301 16.836266,4.47413301 C23.684015,4.47413301 29.2352687,10.0253868 29.2352687,16.8732674 C29.2352687,23.7210163 23.684015,29.2724017 16.836266,29.2724017 L16.836266,29.2724017 Z M16.836266,0.0370013355 C7.53786993,0.0370013355 0,7.57500294 0,16.8732674 C0,26.1716635 7.53786993,33.7094017 16.836266,33.7094017 C26.1345304,33.7094017 33.6724004,26.1716635 33.6724004,16.8732674 C33.6724004,7.57500294 26.1345304,0.0370013355 16.8361343,0.0370013355 L16.836266,0.0370013355 Z" id="Shape"/>
                    <path d="M17.5283622,12.6801338 C17.5283622,10.746847 19.0957177,9.17949145 21.0291362,9.17949145 C22.9625548,9.17949145 24.5297786,10.746847 24.5297786,12.6801338 C24.5297786,14.613684 22.9625548,16.1809079 21.0291362,16.1809079 C19.0957177,16.1809079 17.5283622,14.613684 17.5283622,12.6801338 M17.5283622,21.0661376 C17.5283622,19.1328507 19.0957177,17.5653635 21.0291362,17.5653635 C22.9625548,17.5653635 24.5297786,19.1328507 24.5297786,21.0661376 C24.5297786,22.9995561 22.9625548,24.5669116 21.0291362,24.5669116 C19.0957177,24.5669116 17.5283622,22.9995561 17.5283622,21.0661376 M9.14249012,21.0661376 C9.14249012,19.1328507 10.7099773,17.5653635 12.6432642,17.5653635 C14.5766827,17.5653635 16.1440382,19.1328507 16.1440382,21.0661376 C16.1440382,22.9995561 14.5766827,24.5669116 12.6432642,24.5669116 C10.7099773,24.5669116 9.14249012,22.9995561 9.14249012,21.0661376 M9.14249012,12.6802655 C9.14249012,10.746847 10.7099773,9.17962313 12.6432642,9.17962313 C14.5766827,9.17962313 16.1440382,10.746847 16.1440382,12.6802655 C16.1440382,14.6138157 14.5766827,16.1810395 12.6432642,16.1810395 C10.7099773,16.1810395 9.14249012,14.6138157 9.14249012,12.6802655" id="Shape"/>
                </g>
            </g>
        </g>
    </g>
</svg>