<svg xmlns="http://www.w3.org/2000/svg" xmlns:xlink="http://www.w3.org/1999/xlink" width="94px" height="108px" viewBox="0 0 94 108" version="1.1">
    <!-- Generator: Sketch 43.2 (39069) - http://www.bohemiancoding.com/sketch -->
    <title>logo</title>
    <desc>Created with Sketch.</desc>
    <defs/>
    <g id="Homepage" stroke="none" stroke-width="1" fill="none" fill-rule="evenodd">
        <g transform="translate(-1066.000000, -396.000000)" id="right" fill-rule="nonzero" fill="#FFFFFF">
            <g transform="translate(785.000000, 122.000000)">
                <g id="logo" transform="translate(281.000000, 274.000000)">
                    <path d="M33.794902,76.0992254 C34.8234332,76.0992254 35.6654299,76.9271171 35.6654299,77.9504118 L35.6602484,88.4558951 C35.6602484,89.4766187 36.3105288,89.7851498 37.1084826,89.1372346 L51.7151812,77.2716435 C52.5131349,76.6237282 54.005412,76.0966543 55.0339433,76.0966543 L79.1979514,76.1120808 C82.0685123,75.9449598 84.5090071,72.5871133 84.682588,69.8977507 L84.6514989,36.3912755 C84.6514989,35.3705518 85.4934955,34.7534897 86.5246175,34.7534897 L91.2035281,34.7534897 C92.2320594,34.7534897 93.074056,35.3679807 93.074056,36.3912755 L93.1206897,70.7436401 C93.1206897,78.1715258 87.4598815,86.1753362 79.0399151,86.1753362 L58.0444051,86.1753362 C57.0158738,86.1753362 55.521006,85.8436653 54.725643,86.4890095 L28.6781532,107.214585 C27.8801994,107.8625 27.229919,107.340568 27.229919,106.319845 L27.240282,86.4144478 C27.240282,85.3962952 26.3982854,84.5041262 25.3697541,84.5041262 L15.9834346,84.4912707 C8.66713155,84.4912707 1.27828721,77.3950559 0.879310345,70.129149 L0.879310345,55.6667547 C0.879310345,54.6434599 2.22132345,55.3196572 3.25244548,55.3196572 L7.93135603,55.3196572 C8.9598873,55.3196572 9.80188394,55.3993611 9.80188394,56.4200847 L9.85110836,69.9723124 C9.85110836,72.5896843 13.1465537,75.8626849 15.8694412,76.2792018 L33.794902,76.0992254 Z M21.6856949,47.5215342 C21.2064045,48.4265587 19.9732033,49.1644622 18.9420813,49.1644622 L3.25244548,49.1644622 C2.22391421,49.1644622 1.38191757,48.3288572 1.38191757,47.3081335 L1.38191757,42.6647408 C1.38191757,41.6440171 2.22391421,40.8084121 3.25244548,40.8084121 L13.8538308,40.8084121 C14.8823621,40.8084121 16.1181541,40.0679375 16.5974445,39.1654841 L30.7922124,12.4081263 C31.2715028,11.5056729 32.1109087,11.4722487 32.6575588,12.3361357 L44.6398187,31.254233 C45.1890595,32.1206911 46.04401,32.0949802 46.5414357,31.2002401 L63.2544212,1.18787935 C63.7518469,0.295710313 64.6145697,0.267428298 65.1715828,1.12617313 L76.6305094,18.8152883 C77.1875225,19.6740332 78.482902,20.3759414 79.514024,20.3759414 L91.2009373,20.3759414 C92.2294686,20.3759414 93.0714652,21.2115464 93.0714652,22.2348411 L93.0714652,26.8756628 C93.0714652,27.8963864 92.2294686,28.7345625 91.2009373,28.7345625 L74.9102455,28.7345625 C73.8817142,28.7345625 72.583744,28.0326543 72.0267308,27.1739095 L65.7052791,17.442325 C65.148266,16.5835802 64.2829525,16.6118622 63.7855268,17.5066023 L47.0077723,47.6218068 C46.5103466,48.5139758 45.6553961,48.5371156 45.1061553,47.6757997 L33.3130208,29.0430936 C32.7663707,28.1792066 31.9243741,28.2100597 31.4450837,29.1125131 L21.6856949,47.5215342 Z"/>
                </g>
            </g>
        </g>
    </g>
</svg>