<svg xmlns="http://www.w3.org/2000/svg" xmlns:xlink="http://www.w3.org/1999/xlink" width="66px" height="66px" viewBox="0 0 66 66" version="1.1">
    <!-- Generator: Sketch 43.2 (39069) - http://www.bohemiancoding.com/sketch -->
    <title>04</title>
    <desc>Created with Sketch.</desc>
    <defs/>
    <g id="Linear" stroke="none" stroke-width="1" fill="none" fill-rule="evenodd">
        <g id="04">
            <circle id="Combined-Shape" fill="#0367A1" cx="33" cy="33" r="33"/>
            <g id="Group-3" transform="translate(18.857143, 18.857143)" fill="#FFFFFF">
                <path d="M20.7252781,9.07282756 L22.448362,14.3758745 L24.9868011,13.5508065 C26.3101217,13.1207522 27.7316993,13.8451356 28.1616431,15.1684561 C28.5915868,16.4921082 27.867535,17.9134648 26.5439934,18.3434086 L26.5439934,18.3435191 L24.0055319,19.1682966 L24.8567128,21.7879324 C25.2834513,23.1013057 24.4683265,24.5216675 23.1309693,24.9066275 C21.8488747,25.2755612 20.5132859,24.5807986 20.0658791,23.344351 L19.2145261,20.7249534 L13.9101804,22.4484008 L14.7613234,25.0679945 C15.1880619,26.3815888 14.3729371,27.8019507 13.0356904,28.1866895 C11.7535958,28.5559549 10.4178965,27.8610817 9.97060021,26.6247447 L9.1191464,24.0050668 L6.49778184,24.8567805 C5.18440859,25.283519 3.76404677,24.4682838 3.37908683,23.131037 C3.01015306,21.8489425 3.70491568,20.5133536 4.94136326,20.0661679 L7.56206084,19.2143635 L5.83799681,13.9099156 L3.21771975,14.7612806 C1.90412546,15.1880191 0.483763634,14.3727838 0.0990247408,13.0356476 C-0.270240597,11.7535531 0.424632548,10.4178537 1.66096959,9.97088901 L4.2809431,9.11931023 L3.45534935,6.57919628 C3.02507399,5.2556547 3.74945742,3.83418762 5.07310952,3.40413332 C6.39643005,2.97418954 7.81789713,3.69846244 8.24806196,5.02189349 L9.0732635,7.56164623 L14.3760138,5.83807551 L13.5507387,3.29891314 C13.1205739,1.97559261 13.8448468,0.554015011 15.1683884,0.124071232 C16.4917089,-0.306093597 17.9132865,0.418179303 18.3432303,1.74172088 L19.1681316,4.28047736 L21.706518,3.4554171 C23.0300596,3.02547332 24.4516372,3.74974622 24.881581,5.07306675 C25.3115247,6.39671886 24.5872518,7.81818593 23.2638208,8.24812971 L23.2638208,8.24801919 L20.7252781,9.07282756 Z M15.9334052,10.6297748 L10.6300163,12.3529207 L12.3533985,17.6570368 L17.6571086,15.9331738 L15.9334052,10.6297748 Z" id="Combined-Shape"/>
            </g>
        </g>
    </g>
</svg>