<svg xmlns="http://www.w3.org/2000/svg" xmlns:xlink="http://www.w3.org/1999/xlink" width="66px" height="66px" viewBox="0 0 66 66" version="1.1">
    <!-- Generator: Sketch 46.2 (44496) - http://www.bohemiancoding.com/sketch -->
    <title>08</title>
    <desc>Created with Sketch.</desc>
    <defs/>
    <g id="Slice" stroke="none" stroke-width="1" fill="none" fill-rule="evenodd">
        <g id="top" transform="translate(-299.000000, -109.000000)">
            <g id="08" transform="translate(299.000000, 109.000000)">
                <circle id="Combined-Shape" fill="#0367A1" cx="33" cy="33" r="33"/>
                <path d="M38.3769161,21.0052299 L38.3769161,21 L39.7366997,21 L40.2335437,21.0993688 C40.5647818,21.1638801 40.8655032,21.248422 41.1357078,21.3530207 C41.4059387,21.4576195 41.6674355,21.5796601 41.9201984,21.7191163 C42.1729874,21.8585726 42.4022417,22.00067 42.6079612,22.1453562 C42.8119288,22.2883165 42.9949766,22.4399847 43.1571046,22.6003607 C43.3174545,22.7624887 43.5676285,22.8043282 43.9075744,22.7258792 C44.2475203,22.6474301 44.6136159,22.5384644 45.0058611,22.3990081 C45.3981064,22.2595518 45.7860108,22.1026537 46.1695221,21.9283138 C46.5530595,21.7539739 46.7866808,21.6432822 46.8703598,21.5962128 C46.9522867,21.5474175 46.9958783,21.5212678 47.0011082,21.5177638 L47.006312,21.5099188 L47.0324617,21.496844 L47.0586114,21.4837692 L47.084761,21.4706943 L47.1109107,21.4576195 L47.1161407,21.4497746 L47.1239856,21.4445446 L47.1318566,21.4393147 L47.1370604,21.4314698 L47.1632101,21.4236249 L47.1893598,21.418395 L47.184156,21.4576195 L47.1762849,21.496844 L47.1632101,21.5360685 L47.1501353,21.5752931 L47.1370604,21.6014427 L47.1239856,21.6275924 L47.1109107,21.666817 C47.1022029,21.6929666 47.093495,21.7278242 47.084761,21.7714157 C47.0760532,21.8150072 46.9932372,21.989321 46.836339,22.2944094 C46.6794409,22.5994977 46.4833183,22.908927 46.2479711,23.2227232 C46.012624,23.5365194 45.8017006,23.7735924 45.6151749,23.9339946 C45.4268972,24.0961226 45.3022417,24.2094292 45.2412083,24.2739405 C45.1802011,24.3401776 45.106119,24.4011849 45.018936,24.4569883 L44.8881876,24.5432822 L44.8620379,24.5563571 L44.8358882,24.5694319 L44.8306844,24.5772768 L44.8228133,24.5825068 L44.8149684,24.5877367 L44.8097385,24.5955816 L44.7835888,24.6086564 L44.7574391,24.6217313 L44.7522353,24.6295762 L44.7443643,24.6348061 L44.7365194,24.6400361 L44.7312894,24.647881 L44.7260857,24.6557259 L44.7182146,24.6609558 L44.7103697,24.6661858 L44.7051398,24.6740307 L44.8358882,24.6740307 L45.5680794,24.5171326 C46.0562155,24.4125338 46.5225428,24.2861524 46.9670875,24.1379621 L47.6731289,23.902615 L47.751578,23.8764653 L47.7908025,23.8633904 L47.8169522,23.8503156 L47.8431019,23.8372408 L47.8692516,23.8241659 L47.8954013,23.8110911 L47.9477006,23.8032462 L48,23.7980162 L48,23.8503156 L47.9869252,23.8555455 L47.9738503,23.8633904 L47.9686465,23.8712353 L47.9607755,23.8764653 L47.9529306,23.8816952 L47.9477006,23.8895401 L47.9424968,23.897385 L47.9346258,23.902615 L47.9267809,23.9078449 L47.9215509,23.9156898 L47.9163472,23.9235347 L47.9084761,23.9287647 L47.8954013,23.9549143 L47.8823264,23.981064 L47.8744815,23.986294 C47.8710036,23.9915239 47.760312,24.139688 47.5423805,24.4308386 C47.3244752,24.7237151 47.2068016,24.8718792 47.1893598,24.8753832 C47.1719441,24.8806132 47.1475203,24.9067628 47.1161407,24.9538323 C47.0865131,25.0026276 46.9017133,25.1970243 46.5617674,25.5369702 C46.2218215,25.8769161 45.8888837,26.1793634 45.5628756,26.4443643 C45.2351416,26.7110911 45.0695095,27.0388251 45.0660316,27.4275924 C45.0608016,27.8146078 45.0407448,28.2521966 45.0058611,28.7403066 C44.9710036,29.2284427 44.9056294,29.7557773 44.8097385,30.3223625 C44.7138738,30.8889477 44.5656835,31.529615 44.3651939,32.2443643 C44.1647304,32.9591136 43.9206492,33.6564472 43.6330027,34.336339 C43.3453562,35.0162308 43.0446348,35.6263814 42.7308386,36.166817 C42.4170424,36.7072525 42.1293959,37.164872 41.867899,37.5396754 C41.6064022,37.9144788 41.3405645,38.2674995 41.0703336,38.5987376 C40.8001289,38.9299757 40.4584572,39.3030532 40.0452922,39.7179441 C39.6303751,40.1311091 39.4037619,40.3577484 39.3654004,40.3978359 C39.3253129,40.4361975 39.154477,40.5791578 38.8528404,40.8266907 C38.5530081,41.0759757 38.2304779,41.3252606 37.8853021,41.5745717 C37.5418783,41.8221307 37.22633,42.0287133 36.9386835,42.1943192 C36.651037,42.3599252 36.3041353,42.5490658 35.8979261,42.7617674 C35.493495,42.9761948 35.0559062,43.1749324 34.5852119,43.3579802 C34.1145176,43.541028 33.6176736,43.7110009 33.0946799,43.867899 C32.5716862,44.0247971 32.0661344,44.1468377 31.5779982,44.2339946 C31.0898882,44.3211515 30.5363778,44.3952597 29.9174932,44.4562669 L28.9891794,44.5477908 L28.9891794,44.5608656 L27.28945,44.5608656 L27.28945,44.5477908 L27.0671776,44.534716 C26.9190135,44.5260081 26.7969729,44.5172741 26.7010821,44.5085663 C26.6052173,44.4998584 26.2434626,44.4518999 25.6158702,44.364743 C24.9882777,44.2775861 24.4958007,44.1904031 24.138413,44.1032462 C23.7810514,44.0160893 23.2493237,43.8504572 22.5432822,43.6064022 C21.8372408,43.3623472 21.233183,43.115651 20.7311091,42.8663661 C20.2307872,42.618807 19.916991,42.4619089 19.7897205,42.3956718 C19.664202,42.3311605 19.5229937,42.2509856 19.3660956,42.1550947 L19.1307484,42.0112714 L19.1255446,42.0034265 L19.1176736,41.9981966 L19.1098287,41.9929666 L19.1045987,41.9851217 L19.0784491,41.9720469 L19.0522994,41.958972 L19.0470956,41.9511271 L19.0392245,41.9458972 L19.0313796,41.9406673 L19.0261497,41.9328224 L19.0209459,41.9249775 L19.0130748,41.9197475 L19,41.9197475 L19,41.8674482 L19.0261497,41.8726781 L19.0522994,41.880523 L19.1699729,41.8935978 C19.248422,41.9023057 19.4619865,41.9153805 19.8106402,41.9328224 C20.1593201,41.9502642 20.5297565,41.9502642 20.9220018,41.9328224 C21.3142471,41.9153805 21.7152263,41.876156 22.1248873,41.8151488 C22.5345744,41.7541416 23.0183436,41.6495428 23.5761948,41.5013526 C24.1340721,41.3531623 24.646606,41.1770965 25.1138224,40.9731289 C25.5792867,40.7674355 25.9104986,40.6140153 26.1075104,40.5128945 C26.3027439,40.4135257 26.6008503,40.2287259 27.0018034,39.9585212 L27.6032462,39.5532011 L27.6084761,39.5453562 L27.616321,39.5401262 L27.6241921,39.5348963 L27.6293959,39.5270514 L27.6346258,39.5192065 L27.6424707,39.5139766 L27.6503417,39.5087466 L27.6555455,39.5009017 L27.6816952,39.4930568 L27.7078449,39.4878269 L27.7130748,39.4616772 L27.7209197,39.4355275 L27.7287908,39.4302976 L27.7339946,39.4224527 L27.5247971,39.4093778 C27.3853408,39.40067 27.2502254,39.391936 27.119477,39.3832281 C26.9887286,39.3745203 26.7838981,39.3352958 26.5049594,39.2655546 C26.2260469,39.1958133 25.9253255,39.0912146 25.6027953,38.9517583 C25.2802913,38.8123021 24.966495,38.64667 24.6614067,38.4549143 C24.3563445,38.2631587 24.135798,38.1036195 23.9998197,37.9763751 C23.8655933,37.8508305 23.6912534,37.6730388 23.476826,37.4429216 C23.2641506,37.2110784 23.0793508,36.9730902 22.9224527,36.7290352 C22.7655546,36.4849802 22.6156384,36.2034004 22.4727042,35.8844004 L22.2556357,35.4084761 L22.2425609,35.3692516 L22.229486,35.3300271 L22.2216411,35.3038774 L22.2164112,35.2777277 L22.2556357,35.2829576 L22.2948602,35.2908025 L22.5825068,35.3300271 C22.7742885,35.3561767 23.0750099,35.3648846 23.4846709,35.3561767 C23.894358,35.3474689 24.1776375,35.3300271 24.3345356,35.3038774 C24.4914337,35.2777277 24.5873246,35.2602858 24.6221821,35.251578 L24.6744815,35.2385032 L24.7398557,35.2254283 L24.8052299,35.2123535 L24.8104599,35.2045086 L24.8183048,35.1992786 L24.8261758,35.1940487 L24.8313796,35.1862038 L24.7790803,35.1731289 L24.7267809,35.1600541 L24.6744815,35.1469793 L24.6221821,35.1339044 L24.5698828,35.1208296 C24.5350252,35.1121217 24.474018,35.0946799 24.386835,35.0685302 C24.2996781,35.0423805 24.0643309,34.9464896 23.6807935,34.7808837 C23.2972822,34.6152777 22.9921939,34.4540126 22.7655546,34.2971145 C22.5383534,34.1397616 22.3217177,33.967676 22.1170424,33.7819657 C21.9130748,33.593688 21.6890766,33.3513589 21.4449955,33.0550045 C21.2009405,32.7586501 20.9830352,32.4143372 20.7912534,32.022092 C20.5994977,31.6298467 20.4556745,31.2550433 20.3597836,30.8976555 C20.2642783,30.5423701 20.2012685,30.179138 20.171532,29.8124436 L20.1244364,29.2633003 L20.1505861,29.2685302 L20.1767358,29.2763751 L20.2028855,29.28945 L20.2290352,29.3025248 L20.2551849,29.3155996 L20.2813345,29.3286745 L20.6866546,29.5117223 C20.9568855,29.6337628 21.2924644,29.7383616 21.6934175,29.8255185 C22.0943968,29.9126754 22.3340848,29.9606339 22.4125338,29.9693417 L22.5302074,29.9824166 L22.7655546,29.9824166 L22.7603508,29.9745717 L22.7524797,29.9693417 L22.7446348,29.9641118 L22.7394049,29.9562669 L22.7342011,29.948422 L22.72633,29.9431921 L22.7184851,29.9379621 L22.7132552,29.9301172 L22.6871055,29.9170424 L22.6609558,29.9039675 L22.655752,29.8961226 L22.647881,29.8908927 L22.6400361,29.8856628 L22.6348061,29.8778179 L22.6086564,29.864743 L22.5825068,29.8516682 L22.577303,29.8438233 C22.572073,29.8403192 22.4971019,29.7845419 22.3523895,29.6764653 C22.2094292,29.5666366 22.0595131,29.4245654 21.902615,29.2502254 C21.7457169,29.0758855 21.5888188,28.8928377 21.4319206,28.7010821 C21.2747337,28.5088871 21.1347308,28.3032578 21.0135257,28.0865645 C20.8915113,27.8686592 20.7624887,27.5914463 20.6265104,27.2550045 C20.492284,26.9202885 20.3903003,26.5829576 20.3205591,26.2430117 C20.250844,25.9030658 20.2116195,25.5674869 20.2028855,25.2362489 C20.1941776,24.9050108 20.2028855,24.6217313 20.2290352,24.3863841 C20.2551849,24.151037 20.3074842,23.8851731 20.3859333,23.5888188 C20.4643823,23.2924644 20.5777151,22.9786682 20.7258792,22.6474301 L20.9481515,22.1505861 L20.9612263,22.1113616 L20.9743012,22.0721371 L20.9821722,22.0669071 L20.987376,22.0590622 L20.992606,22.0512173 L21.0004509,22.0459874 L21.0083219,22.0512173 L21.0135257,22.0590622 L21.0187556,22.0669071 L21.0266005,22.0721371 L21.0344716,22.077367 L21.0396754,22.0852119 L21.0449053,22.0930568 L21.0527502,22.0982867 L21.0658251,22.1244364 L21.0788999,22.1505861 L21.086771,22.1558161 L21.0919748,22.163661 L21.4449955,22.5559062 C21.6803427,22.8174031 21.9592813,23.1094166 22.2817854,23.4319206 C22.6043156,23.7544247 22.7829964,23.9217827 22.8178539,23.9339946 C22.8527376,23.9479324 22.896303,23.9880198 22.9486023,24.0542831 C23.0009017,24.1187944 23.1752417,24.2730775 23.471596,24.5171326 C23.7679766,24.7611876 24.1558548,25.0444932 24.635257,25.3669973 C25.1146853,25.6895014 25.6463868,26.0076646 26.2303877,26.3214608 C26.8144148,26.635257 27.4420072,26.9185365 28.113165,27.1713255 C28.784349,27.4241145 29.2550433,27.5897205 29.525248,27.6681695 C29.7954788,27.7466186 30.2574391,27.8468503 30.9111812,27.9688909 C31.5649234,28.0909315 32.0574265,28.1693805 32.3886384,28.2042381 C32.7198765,28.2390956 32.9465158,28.2591524 33.0685302,28.2643823 L33.251578,28.2696123 L33.2463742,28.2303877 L33.2385032,28.1911632 L33.1862038,27.8642922 C33.1513463,27.6463868 33.1339044,27.3412985 33.1339044,26.9490532 C33.1339044,26.5568079 33.1644211,26.1950794 33.2254283,25.8638413 C33.2864617,25.5326032 33.3779856,25.1970243 33.5,24.8570784 C33.6220406,24.5171326 33.7414662,24.2442867 33.8582507,24.0385933 C33.9768133,23.8346258 34.1319594,23.6018936 34.3237151,23.3403968 C34.5154968,23.0788999 34.7639188,22.8086952 35.0689811,22.5297565 C35.3740694,22.2508179 35.7227232,22.0023959 36.1149684,21.7844905 C36.5072137,21.5665852 36.8689684,21.4009531 37.2001803,21.2876465 C37.5314184,21.1743399 37.8103571,21.1002317 38.0369702,21.0653742 C38.2636096,21.0305167 38.3769161,21.0104599 38.3769161,21.0052299 Z" id="Shape" fill="#FFFFFF" fill-rule="nonzero"/>
            </g>
        </g>
    </g>
</svg>