<svg xmlns="http://www.w3.org/2000/svg" xmlns:xlink="http://www.w3.org/1999/xlink" width="1080" zoomAndPan="magnify" viewBox="0 0 810 809.999993" height="1080" preserveAspectRatio="xMidYMid meet" version="1.0"><defs><clipPath id="9ce5542749"><path d="M 79.238281 233.828125 L 730.988281 233.828125 L 730.988281 575.828125 L 79.238281 575.828125 Z M 79.238281 233.828125 " clip-rule="nonzero"/></clipPath></defs><g clip-path="url(#9ce5542749)"><path fill="#2a8ceb" d="M 90.152344 235.078125 L 719.398438 233.851562 C 720.109375 233.847656 720.816406 233.917969 721.515625 234.054688 C 722.210938 234.191406 722.890625 234.394531 723.546875 234.664062 C 724.207031 234.9375 724.832031 235.269531 725.425781 235.664062 C 726.015625 236.054688 726.566406 236.503906 727.070312 237.003906 C 727.574219 237.507812 728.023438 238.050781 728.417969 238.640625 C 728.816406 239.234375 729.152344 239.855469 729.425781 240.511719 C 729.699219 241.167969 729.90625 241.84375 730.046875 242.539062 C 730.1875 243.238281 730.257812 243.941406 730.257812 244.652344 L 730.882812 563.933594 C 730.882812 564.644531 730.816406 565.347656 730.679688 566.046875 C 730.542969 566.742188 730.335938 567.421875 730.066406 568.078125 C 729.796875 568.734375 729.460938 569.359375 729.070312 569.949219 C 728.675781 570.542969 728.226562 571.089844 727.722656 571.59375 C 727.222656 572.097656 726.675781 572.546875 726.085938 572.941406 C 725.492188 573.339844 724.871094 573.671875 724.210938 573.945312 C 723.554688 574.21875 722.878906 574.425781 722.179688 574.566406 C 721.484375 574.707031 720.777344 574.777344 720.066406 574.777344 L 90.820312 576.007812 C 90.109375 576.007812 89.402344 575.941406 88.703125 575.800781 C 88.007812 575.664062 87.328125 575.460938 86.671875 575.191406 C 86.011719 574.921875 85.386719 574.585938 84.796875 574.195312 C 84.203125 573.800781 83.652344 573.351562 83.148438 572.851562 C 82.644531 572.351562 82.195312 571.804688 81.800781 571.214844 C 81.402344 570.625 81.066406 570 80.792969 569.34375 C 80.519531 568.6875 80.3125 568.011719 80.171875 567.316406 C 80.03125 566.617188 79.960938 565.914062 79.960938 565.203125 L 79.335938 245.921875 C 79.335938 245.210938 79.402344 244.507812 79.539062 243.8125 C 79.675781 243.113281 79.882812 242.4375 80.152344 241.777344 C 80.421875 241.121094 80.757812 240.496094 81.152344 239.90625 C 81.542969 239.3125 81.992188 238.765625 82.496094 238.261719 C 82.996094 237.761719 83.542969 237.308594 84.132812 236.914062 C 84.726562 236.519531 85.347656 236.183594 86.007812 235.910156 C 86.664062 235.636719 87.339844 235.429688 88.039062 235.289062 C 88.734375 235.152344 89.441406 235.078125 90.152344 235.078125 Z M 90.152344 235.078125 " fill-opacity="0.502" fill-rule="nonzero"/></g><path fill="#ffffff" d="M 117.265625 262.171875 L 691.738281 261.050781 C 692.449219 261.050781 693.152344 261.117188 693.851562 261.253906 C 694.550781 261.394531 695.226562 261.597656 695.886719 261.867188 C 696.542969 262.136719 697.167969 262.46875 697.761719 262.863281 C 698.355469 263.257812 698.902344 263.707031 699.40625 264.207031 C 699.910156 264.707031 700.359375 265.253906 700.757812 265.84375 C 701.152344 266.433594 701.488281 267.058594 701.761719 267.714844 C 702.035156 268.371094 702.242188 269.046875 702.382812 269.742188 C 702.523438 270.4375 702.59375 271.144531 702.597656 271.855469 L 703.125 542.277344 C 703.125 542.988281 703.058594 543.691406 702.921875 544.386719 C 702.785156 545.085938 702.578125 545.761719 702.308594 546.417969 C 702.035156 547.078125 701.703125 547.703125 701.308594 548.292969 C 700.917969 548.882812 700.46875 549.433594 699.964844 549.9375 C 699.464844 550.4375 698.917969 550.890625 698.324219 551.285156 C 697.734375 551.679688 697.109375 552.015625 696.453125 552.289062 C 695.796875 552.5625 695.121094 552.769531 694.421875 552.910156 C 693.726562 553.046875 693.019531 553.117188 692.308594 553.121094 L 117.839844 554.242188 C 117.128906 554.242188 116.421875 554.175781 115.722656 554.039062 C 115.027344 553.902344 114.347656 553.695312 113.691406 553.425781 C 113.03125 553.15625 112.40625 552.824219 111.816406 552.429688 C 111.222656 552.035156 110.675781 551.589844 110.167969 551.085938 C 109.664062 550.585938 109.214844 550.039062 108.820312 549.449219 C 108.421875 548.859375 108.085938 548.238281 107.8125 547.582031 C 107.539062 546.925781 107.332031 546.246094 107.191406 545.550781 C 107.050781 544.855469 106.980469 544.152344 106.980469 543.441406 L 106.453125 273.015625 C 106.449219 272.308594 106.519531 271.601562 106.65625 270.90625 C 106.792969 270.207031 106.996094 269.53125 107.269531 268.875 C 107.539062 268.21875 107.871094 267.59375 108.265625 267 C 108.660156 266.410156 109.109375 265.863281 109.609375 265.359375 C 110.113281 264.855469 110.660156 264.40625 111.25 264.007812 C 111.839844 263.613281 112.464844 263.277344 113.121094 263.003906 C 113.777344 262.730469 114.457031 262.527344 115.152344 262.386719 C 115.851562 262.246094 116.554688 262.175781 117.265625 262.171875 Z M 117.265625 262.171875 " fill-opacity="1" fill-rule="nonzero"/><path fill="#6e5ef1" d="M 323.617188 364.449219 C 333.488281 382.304688 336.878906 402.71875 333.265625 422.566406 C 329.648438 442.410156 319.230469 460.589844 303.609375 474.3125 C 287.984375 488.035156 268.019531 496.546875 246.773438 498.535156 C 225.53125 500.527344 204.179688 495.886719 186 485.328125 L 209.027344 450.054688 C 219.019531 455.855469 230.757812 458.40625 242.433594 457.3125 C 254.113281 456.21875 265.085938 451.542969 273.675781 443.996094 C 282.261719 436.453125 287.988281 426.460938 289.976562 415.550781 C 291.960938 404.644531 290.097656 393.421875 284.671875 383.605469 Z M 323.617188 364.449219 " fill-opacity="1" fill-rule="nonzero"/><path fill="#fb7457" d="M 144.078125 379.429688 C 151.621094 356.773438 168.160156 337.75 190.234375 326.332031 C 212.308594 314.914062 238.207031 311.988281 262.515625 318.167969 C 286.824219 324.347656 307.65625 339.152344 320.65625 359.484375 C 333.660156 379.816406 337.820312 404.101562 332.273438 427.261719 L 289.433594 418.136719 C 292.480469 405.402344 290.191406 392.054688 283.046875 380.878906 C 275.898438 369.699219 264.449219 361.5625 251.085938 358.167969 C 237.722656 354.769531 223.488281 356.378906 211.355469 362.65625 C 199.21875 368.929688 190.128906 379.386719 185.984375 391.839844 Z M 144.078125 379.429688 " fill-opacity="1" fill-rule="nonzero"/><path fill="#2a8ceb" d="M 186.335938 485.523438 C 171.703125 477.105469 159.683594 465.199219 151.484375 451.003906 C 143.285156 436.808594 139.195312 420.824219 139.628906 404.664062 C 140.0625 388.503906 145.003906 372.738281 153.953125 358.953125 C 162.902344 345.167969 175.546875 333.847656 190.613281 326.136719 L 211.5625 362.546875 C 203.28125 366.785156 196.332031 373.007812 191.410156 380.585938 C 186.492188 388.164062 183.773438 396.832031 183.535156 405.714844 C 183.300781 414.597656 185.546875 423.382812 190.054688 431.183594 C 194.5625 438.988281 201.167969 445.53125 209.210938 450.160156 Z M 186.335938 485.523438 " fill-opacity="1" fill-rule="nonzero"/><path fill="#c4c4c4" d="M 372.601562 309.585938 L 654.375 309.585938 L 654.375 336.644531 L 372.601562 336.644531 Z M 372.601562 309.585938 " fill-opacity="0.502" fill-rule="nonzero"/><path fill="#2a8ceb" d="M 372.601562 309.585938 L 518.910156 309.585938 L 518.910156 336.644531 L 372.601562 336.644531 Z M 372.601562 309.585938 " fill-opacity="1" fill-rule="nonzero"/><path fill="#c4c4c4" d="M 372.601562 352.878906 L 654.375 352.878906 L 654.375 379.9375 L 372.601562 379.9375 Z M 372.601562 352.878906 " fill-opacity="0.502" fill-rule="nonzero"/><path fill="#fb7457" d="M 372.601562 352.878906 L 475.558594 352.878906 L 475.558594 379.9375 L 372.601562 379.9375 Z M 372.601562 352.878906 " fill-opacity="1" fill-rule="nonzero"/><path fill="#c4c4c4" d="M 372.601562 396.167969 L 654.375 396.167969 L 654.375 423.226562 L 372.601562 423.226562 Z M 372.601562 396.167969 " fill-opacity="0.502" fill-rule="nonzero"/><path fill="#6e5ef1" d="M 372.601562 396.167969 L 529.746094 396.167969 L 529.746094 423.226562 L 372.601562 423.226562 Z M 372.601562 396.167969 " fill-opacity="1" fill-rule="nonzero"/><path fill="#c4c4c4" d="M 372.601562 439.460938 L 654.375 439.460938 L 654.375 466.519531 L 372.601562 466.519531 Z M 372.601562 439.460938 " fill-opacity="0.502" fill-rule="nonzero"/><path fill="#2a8ceb" d="M 372.601562 439.460938 L 567.675781 439.460938 L 567.675781 466.519531 L 372.601562 466.519531 Z M 372.601562 439.460938 " fill-opacity="1" fill-rule="nonzero"/><path fill="#c4c4c4" d="M 372.601562 482.753906 L 654.375 482.753906 L 654.375 509.808594 L 372.601562 509.808594 Z M 372.601562 482.753906 " fill-opacity="0.502" fill-rule="nonzero"/><path fill="#fb7457" d="M 372.601562 482.753906 L 502.652344 482.753906 L 502.652344 509.808594 L 372.601562 509.808594 Z M 372.601562 482.753906 " fill-opacity="1" fill-rule="nonzero"/></svg>