<svg xmlns="http://www.w3.org/2000/svg" xmlns:xlink="http://www.w3.org/1999/xlink" width="1080" zoomAndPan="magnify" viewBox="0 0 810 809.999993" height="1080" preserveAspectRatio="xMidYMid meet" version="1.0"><defs><clipPath id="78a0a536fa"><path d="M 654 309 L 728.710938 309 L 728.710938 422 L 654 422 Z M 654 309 " clip-rule="nonzero"/></clipPath><clipPath id="3fe32a4da2"><path d="M 80.710938 329 L 157 329 L 157 443 L 80.710938 443 Z M 80.710938 329 " clip-rule="nonzero"/></clipPath></defs><path fill="#2a8ceb" d="M 262.214844 319.28125 L 237.902344 309.28125 L 188.558594 408.007812 L 212.867188 417.992188 Z M 262.214844 319.28125 " fill-opacity="1" fill-rule="evenodd"/><path fill="#2a8ceb" d="M 621.207031 324.152344 L 596.898438 314.171875 L 547.554688 412.878906 L 571.863281 422.859375 Z M 621.207031 324.152344 " fill-opacity="1" fill-rule="evenodd"/><path fill="#2a8ceb" d="M 318.882812 304.308594 L 295.296875 313.910156 L 346.03125 416.441406 L 369.636719 406.84375 Z M 318.882812 304.308594 " fill-opacity="1" fill-rule="evenodd"/><g clip-path="url(#78a0a536fa)"><path fill="#2a8ceb" d="M 677.878906 309.179688 L 654.292969 318.777344 L 705.027344 421.3125 L 728.632812 411.710938 Z M 677.878906 309.179688 " fill-opacity="1" fill-rule="evenodd"/></g><path fill="#2a8ceb" d="M 239.554688 434.875 L 275.796875 434.875 L 275.796875 570.128906 L 239.554688 570.128906 Z M 239.554688 434.875 " fill-opacity="1" fill-rule="evenodd"/><path fill="#2a8ceb" d="M 598.550781 439.765625 L 634.792969 439.765625 L 634.792969 575.019531 L 598.550781 575.019531 Z M 598.550781 439.765625 " fill-opacity="1" fill-rule="evenodd"/><path fill="#2a8ceb" d="M 320.574219 314.332031 C 320.574219 303.019531 311.398438 293.84375 300.085938 293.84375 L 259.113281 293.84375 C 247.804688 293.84375 238.628906 303.019531 238.628906 314.332031 L 238.628906 428.917969 C 238.628906 440.226562 247.804688 449.40625 259.113281 449.40625 L 300.085938 449.40625 C 311.398438 449.40625 320.574219 440.226562 320.574219 428.917969 Z M 320.574219 314.332031 " fill-opacity="1" fill-rule="evenodd"/><path fill="#2a8ceb" d="M 679.570312 319.203125 C 679.570312 307.890625 670.390625 298.714844 659.082031 298.714844 L 618.109375 298.714844 C 606.800781 298.714844 597.625 307.890625 597.625 319.203125 L 597.625 433.789062 C 597.625 445.097656 606.800781 454.273438 618.109375 454.273438 L 659.082031 454.273438 C 670.390625 454.273438 679.570312 445.097656 679.570312 433.789062 Z M 679.570312 319.203125 " fill-opacity="1" fill-rule="evenodd"/><path fill="#2a8ceb" d="M 326.628906 252.953125 C 326.628906 254.433594 326.554688 255.914062 326.402344 257.386719 C 326.25 258.863281 326.023438 260.328125 325.722656 261.78125 C 325.421875 263.234375 325.042969 264.671875 324.59375 266.089844 C 324.144531 267.507812 323.625 268.902344 323.03125 270.273438 C 322.441406 271.640625 321.777344 272.980469 321.046875 274.289062 C 320.320312 275.59375 319.523438 276.863281 318.664062 278.097656 C 317.804688 279.328125 316.882812 280.519531 315.902344 281.664062 C 314.917969 282.808594 313.878906 283.90625 312.785156 284.957031 C 311.691406 286.003906 310.542969 286.996094 309.347656 287.9375 C 308.152344 288.878906 306.910156 289.761719 305.621094 290.585938 C 304.335938 291.40625 303.007812 292.167969 301.640625 292.867188 C 300.277344 293.566406 298.878906 294.199219 297.449219 294.765625 C 296.019531 295.332031 294.5625 295.832031 293.082031 296.261719 C 291.597656 296.691406 290.097656 297.054688 288.582031 297.34375 C 287.0625 297.632812 285.53125 297.847656 283.992188 297.992188 C 282.453125 298.140625 280.90625 298.210938 279.359375 298.210938 C 277.8125 298.210938 276.265625 298.140625 274.726562 297.992188 C 273.183594 297.847656 271.65625 297.632812 270.136719 297.34375 C 268.617188 297.054688 267.117188 296.691406 265.636719 296.261719 C 264.15625 295.832031 262.699219 295.332031 261.269531 294.765625 C 259.839844 294.199219 258.441406 293.566406 257.074219 292.867188 C 255.710938 292.167969 254.382812 291.40625 253.097656 290.585938 C 251.808594 289.761719 250.566406 288.878906 249.371094 287.9375 C 248.171875 286.996094 247.027344 286.003906 245.933594 284.957031 C 244.835938 283.90625 243.800781 282.808594 242.816406 281.664062 C 241.835938 280.519531 240.914062 279.328125 240.054688 278.097656 C 239.195312 276.863281 238.398438 275.59375 237.667969 274.289062 C 236.9375 272.980469 236.277344 271.640625 235.683594 270.273438 C 235.09375 268.902344 234.570312 267.507812 234.121094 266.089844 C 233.671875 264.671875 233.296875 263.234375 232.996094 261.78125 C 232.691406 260.328125 232.464844 258.863281 232.316406 257.386719 C 232.164062 255.914062 232.085938 254.433594 232.085938 252.953125 C 232.085938 251.46875 232.164062 249.992188 232.316406 248.515625 C 232.464844 247.039062 232.691406 245.578125 232.996094 244.121094 C 233.296875 242.667969 233.671875 241.234375 234.121094 239.8125 C 234.570312 238.394531 235.09375 237 235.683594 235.632812 C 236.277344 234.261719 236.9375 232.925781 237.667969 231.617188 C 238.398438 230.308594 239.195312 229.039062 240.054688 227.808594 C 240.914062 226.574219 241.835938 225.386719 242.816406 224.238281 C 243.800781 223.09375 244.835938 221.996094 245.933594 220.949219 C 247.027344 219.902344 248.171875 218.90625 249.371094 217.964844 C 250.566406 217.027344 251.808594 216.144531 253.097656 215.320312 C 254.382812 214.496094 255.710938 213.734375 257.074219 213.039062 C 258.441406 212.339844 259.839844 211.707031 261.269531 211.136719 C 262.699219 210.570312 264.15625 210.070312 265.636719 209.640625 C 267.117188 209.210938 268.617188 208.851562 270.136719 208.5625 C 271.65625 208.273438 273.183594 208.054688 274.726562 207.910156 C 276.265625 207.765625 277.8125 207.691406 279.359375 207.691406 C 280.90625 207.691406 282.453125 207.765625 283.992188 207.910156 C 285.53125 208.054688 287.0625 208.273438 288.582031 208.5625 C 290.097656 208.851562 291.597656 209.210938 293.082031 209.640625 C 294.5625 210.070312 296.019531 210.570312 297.449219 211.136719 C 298.878906 211.707031 300.277344 212.339844 301.640625 213.039062 C 303.007812 213.734375 304.335938 214.496094 305.621094 215.320312 C 306.910156 216.144531 308.152344 217.027344 309.347656 217.964844 C 310.542969 218.90625 311.691406 219.902344 312.785156 220.949219 C 313.878906 221.996094 314.917969 223.09375 315.898438 224.238281 C 316.882812 225.386719 317.804688 226.574219 318.664062 227.808594 C 319.523438 229.039062 320.320312 230.308594 321.046875 231.617188 C 321.777344 232.925781 322.441406 234.261719 323.03125 235.632812 C 323.625 237 324.144531 238.394531 324.59375 239.8125 C 325.042969 241.234375 325.421875 242.667969 325.722656 244.121094 C 326.023438 245.578125 326.25 247.039062 326.402344 248.515625 C 326.554688 249.992188 326.628906 251.46875 326.628906 252.953125 Z M 326.628906 252.953125 " fill-opacity="1" fill-rule="nonzero"/><path fill="#2a8ceb" d="M 685.625 257.824219 C 685.625 259.304688 685.550781 260.785156 685.398438 262.257812 C 685.246094 263.734375 685.019531 265.199219 684.71875 266.652344 C 684.417969 268.105469 684.039062 269.542969 683.589844 270.960938 C 683.140625 272.378906 682.621094 273.773438 682.027344 275.140625 C 681.4375 276.511719 680.773438 277.851562 680.042969 279.15625 C 679.316406 280.464844 678.519531 281.734375 677.660156 282.96875 C 676.800781 284.199219 675.878906 285.390625 674.894531 286.535156 C 673.914062 287.679688 672.875 288.777344 671.78125 289.824219 C 670.6875 290.875 669.539062 291.867188 668.34375 292.808594 C 667.148438 293.75 665.90625 294.628906 664.617188 295.453125 C 663.332031 296.277344 662.003906 297.039062 660.636719 297.738281 C 659.273438 298.4375 657.875 299.070312 656.445312 299.636719 C 655.015625 300.203125 653.558594 300.703125 652.078125 301.132812 C 650.59375 301.5625 649.09375 301.921875 647.578125 302.210938 C 646.058594 302.5 644.527344 302.71875 642.988281 302.863281 C 641.449219 303.007812 639.902344 303.082031 638.355469 303.082031 C 636.804688 303.082031 635.261719 303.007812 633.722656 302.863281 C 632.179688 302.71875 630.652344 302.5 629.132812 302.210938 C 627.613281 301.921875 626.113281 301.5625 624.632812 301.132812 C 623.152344 300.703125 621.695312 300.203125 620.265625 299.636719 C 618.835938 299.070312 617.4375 298.4375 616.070312 297.738281 C 614.707031 297.039062 613.378906 296.277344 612.09375 295.453125 C 610.804688 294.628906 609.5625 293.75 608.367188 292.808594 C 607.167969 291.867188 606.023438 290.875 604.929688 289.824219 C 603.832031 288.777344 602.796875 287.679688 601.8125 286.535156 C 600.832031 285.390625 599.910156 284.199219 599.050781 282.96875 C 598.191406 281.734375 597.394531 280.464844 596.664062 279.15625 C 595.933594 277.851562 595.273438 276.511719 594.679688 275.140625 C 594.089844 273.773438 593.566406 272.378906 593.117188 270.960938 C 592.667969 269.542969 592.292969 268.105469 591.992188 266.652344 C 591.6875 265.199219 591.460938 263.734375 591.3125 262.257812 C 591.160156 260.785156 591.082031 259.304688 591.082031 257.824219 C 591.082031 256.339844 591.160156 254.863281 591.3125 253.386719 C 591.460938 251.910156 591.6875 250.445312 591.992188 248.992188 C 592.292969 247.539062 592.667969 246.101562 593.117188 244.683594 C 593.566406 243.265625 594.089844 241.871094 594.679688 240.503906 C 595.273438 239.132812 595.933594 237.792969 596.664062 236.488281 C 597.394531 235.179688 598.191406 233.910156 599.050781 232.675781 C 599.910156 231.445312 600.832031 230.257812 601.8125 229.109375 C 602.796875 227.964844 603.832031 226.867188 604.929688 225.820312 C 606.023438 224.769531 607.167969 223.777344 608.367188 222.835938 C 609.5625 221.894531 610.804688 221.015625 612.09375 220.191406 C 613.378906 219.367188 614.707031 218.605469 616.070312 217.90625 C 617.4375 217.207031 618.835938 216.574219 620.265625 216.007812 C 621.695312 215.441406 623.152344 214.941406 624.632812 214.511719 C 626.113281 214.082031 627.613281 213.722656 629.132812 213.433594 C 630.652344 213.144531 632.179688 212.925781 633.722656 212.78125 C 635.261719 212.636719 636.804688 212.5625 638.355469 212.5625 C 639.902344 212.5625 641.449219 212.636719 642.988281 212.78125 C 644.527344 212.925781 646.058594 213.144531 647.578125 213.433594 C 649.09375 213.722656 650.59375 214.082031 652.078125 214.511719 C 653.558594 214.941406 655.015625 215.441406 656.445312 216.007812 C 657.875 216.574219 659.273438 217.207031 660.636719 217.90625 C 662.003906 218.605469 663.332031 219.367188 664.617188 220.191406 C 665.90625 221.015625 667.148438 221.894531 668.34375 222.835938 C 669.539062 223.777344 670.6875 224.769531 671.78125 225.820312 C 672.875 226.867188 673.914062 227.964844 674.894531 229.109375 C 675.878906 230.257812 676.800781 231.445312 677.660156 232.675781 C 678.519531 233.910156 679.316406 235.179688 680.042969 236.488281 C 680.773438 237.792969 681.4375 239.132812 682.027344 240.503906 C 682.621094 241.871094 683.140625 243.265625 683.589844 244.683594 C 684.039062 246.101562 684.417969 247.539062 684.71875 248.992188 C 685.019531 250.445312 685.246094 251.910156 685.398438 253.386719 C 685.550781 254.863281 685.625 256.339844 685.625 257.824219 Z M 685.625 257.824219 " fill-opacity="1" fill-rule="nonzero"/><path fill="#2a8ceb" d="M 282.054688 435.578125 L 319.367188 435.578125 L 319.367188 570.472656 L 282.054688 570.472656 Z M 282.054688 435.578125 " fill-opacity="1" fill-rule="evenodd"/><path fill="#2a8ceb" d="M 641.050781 440.46875 L 678.363281 440.46875 L 678.363281 575.363281 L 641.050781 575.363281 Z M 641.050781 440.46875 " fill-opacity="1" fill-rule="evenodd"/><path fill="#2a8ceb" d="M 459.148438 321.816406 L 434.820312 311.835938 L 385.472656 410.546875 L 409.804688 420.546875 Z M 459.148438 321.816406 " fill-opacity="1" fill-rule="evenodd"/><path fill="#2a8ceb" d="M 511.53125 302.378906 L 485.53125 314.773438 L 543.507812 414.710938 L 569.511719 402.3125 Z M 511.53125 302.378906 " fill-opacity="1" fill-rule="evenodd"/><path fill="#2a8ceb" d="M 436.46875 437.429688 L 472.710938 437.429688 L 472.710938 572.6875 L 436.46875 572.6875 Z M 436.46875 437.429688 " fill-opacity="1" fill-rule="evenodd"/><path fill="#2a8ceb" d="M 517.507812 316.867188 C 517.507812 305.578125 508.332031 296.378906 497.023438 296.378906 L 456.050781 296.378906 C 444.738281 296.378906 435.5625 305.578125 435.5625 316.867188 L 435.5625 431.453125 C 435.5625 442.765625 444.738281 451.941406 456.050781 451.941406 L 497.023438 451.941406 C 508.332031 451.941406 517.507812 442.765625 517.507812 431.453125 Z M 517.507812 316.867188 " fill-opacity="1" fill-rule="evenodd"/><path fill="#2a8ceb" d="M 523.546875 255.507812 C 523.546875 256.992188 523.46875 258.46875 523.320312 259.945312 C 523.167969 261.417969 522.941406 262.882812 522.636719 264.335938 C 522.335938 265.792969 521.960938 267.226562 521.511719 268.644531 C 521.0625 270.066406 520.539062 271.457031 519.949219 272.828125 C 519.355469 274.199219 518.695312 275.535156 517.964844 276.84375 C 517.234375 278.152344 516.4375 279.421875 515.578125 280.652344 C 514.71875 281.886719 513.796875 283.074219 512.816406 284.21875 C 511.832031 285.367188 510.796875 286.464844 509.699219 287.511719 C 508.605469 288.558594 507.460938 289.554688 506.261719 290.492188 C 505.066406 291.433594 503.824219 292.316406 502.535156 293.140625 C 501.25 293.964844 499.921875 294.722656 498.558594 295.421875 C 497.191406 296.121094 495.792969 296.753906 494.363281 297.324219 C 492.933594 297.890625 491.476562 298.386719 489.996094 298.820312 C 488.515625 299.25 487.015625 299.609375 485.496094 299.898438 C 483.976562 300.1875 482.449219 300.402344 480.90625 300.550781 C 479.367188 300.695312 477.824219 300.765625 476.273438 300.765625 C 474.726562 300.765625 473.179688 300.695312 471.640625 300.550781 C 470.101562 300.402344 468.570312 300.1875 467.050781 299.898438 C 465.535156 299.609375 464.035156 299.25 462.550781 298.820312 C 461.070312 298.386719 459.613281 297.890625 458.183594 297.324219 C 456.753906 296.753906 455.355469 296.121094 453.992188 295.421875 C 452.625 294.722656 451.296875 293.964844 450.011719 293.140625 C 448.722656 292.316406 447.480469 291.433594 446.285156 290.492188 C 445.089844 289.554688 443.941406 288.558594 442.847656 287.511719 C 441.753906 286.464844 440.714844 285.367188 439.734375 284.21875 C 438.75 283.074219 437.828125 281.886719 436.96875 280.652344 C 436.109375 279.421875 435.3125 278.152344 434.585938 276.84375 C 433.855469 275.535156 433.191406 274.199219 432.601562 272.828125 C 432.007812 271.457031 431.488281 270.066406 431.039062 268.644531 C 430.589844 267.226562 430.210938 265.792969 429.910156 264.335938 C 429.609375 262.882812 429.382812 261.417969 429.230469 259.945312 C 429.078125 258.46875 429.003906 256.992188 429.003906 255.507812 C 429.003906 254.027344 429.078125 252.546875 429.230469 251.070312 C 429.382812 249.597656 429.609375 248.132812 429.910156 246.679688 C 430.210938 245.226562 430.589844 243.789062 431.039062 242.371094 C 431.488281 240.953125 432.007812 239.558594 432.601562 238.1875 C 433.191406 236.820312 433.855469 235.480469 434.585938 234.171875 C 435.3125 232.867188 436.109375 231.597656 436.96875 230.363281 C 437.828125 229.132812 438.75 227.941406 439.734375 226.796875 C 440.714844 225.648438 441.753906 224.554688 442.847656 223.503906 C 443.941406 222.457031 445.089844 221.460938 446.285156 220.523438 C 447.480469 219.582031 448.722656 218.699219 450.011719 217.875 C 451.296875 217.054688 452.625 216.292969 453.992188 215.59375 C 455.355469 214.894531 456.753906 214.261719 458.183594 213.695312 C 459.613281 213.125 461.070312 212.628906 462.550781 212.199219 C 464.035156 211.765625 465.535156 211.40625 467.050781 211.117188 C 468.570312 210.828125 470.101562 210.613281 471.640625 210.464844 C 473.179688 210.320312 474.726562 210.25 476.273438 210.25 C 477.824219 210.25 479.367188 210.320312 480.90625 210.464844 C 482.449219 210.613281 483.976562 210.828125 485.496094 211.117188 C 487.015625 211.40625 488.515625 211.765625 489.996094 212.199219 C 491.476562 212.628906 492.933594 213.125 494.363281 213.695312 C 495.792969 214.261719 497.191406 214.894531 498.558594 215.59375 C 499.921875 216.292969 501.25 217.054688 502.535156 217.875 C 503.824219 218.699219 505.066406 219.582031 506.261719 220.523438 C 507.460938 221.460938 508.605469 222.457031 509.699219 223.503906 C 510.796875 224.554688 511.832031 225.648438 512.816406 226.796875 C 513.796875 227.941406 514.71875 229.132812 515.578125 230.363281 C 516.4375 231.597656 517.234375 232.867188 517.964844 234.171875 C 518.695312 235.480469 519.355469 236.820312 519.949219 238.1875 C 520.539062 239.558594 521.0625 240.953125 521.511719 242.371094 C 521.960938 243.789062 522.335938 245.226562 522.636719 246.679688 C 522.941406 248.132812 523.167969 249.597656 523.320312 251.070312 C 523.46875 252.546875 523.546875 254.027344 523.546875 255.507812 Z M 523.546875 255.507812 " fill-opacity="1" fill-rule="nonzero"/><path fill="#2a8ceb" d="M 478.992188 438.136719 L 516.300781 438.136719 L 516.300781 573.027344 L 478.992188 573.027344 Z M 478.992188 438.136719 " fill-opacity="1" fill-rule="evenodd"/><g clip-path="url(#3fe32a4da2)"><path fill="#83bbec" d="M 156.78125 340.210938 L 131.667969 329.90625 L 80.710938 431.835938 L 105.828125 442.140625 Z M 156.78125 340.210938 " fill-opacity="1" fill-rule="evenodd"/></g><path fill="#83bbec" d="M 215.304688 324.753906 L 190.933594 334.675781 L 243.316406 440.53125 L 267.6875 430.628906 Z M 215.304688 324.753906 " fill-opacity="1" fill-rule="evenodd"/><path fill="#83bbec" d="M 133.359375 459.585938 L 170.769531 459.585938 L 170.769531 599.25 L 133.359375 599.25 Z M 133.359375 459.585938 " fill-opacity="1" fill-rule="evenodd"/><path fill="#83bbec" d="M 217.035156 335.097656 C 217.035156 323.425781 207.554688 313.949219 195.882812 313.949219 L 153.582031 313.949219 C 141.910156 313.949219 132.433594 323.425781 132.433594 335.097656 L 132.433594 453.429688 C 132.433594 465.101562 141.910156 474.582031 153.582031 474.582031 L 195.882812 474.582031 C 207.554688 474.582031 217.035156 465.101562 217.035156 453.429688 Z M 217.035156 335.097656 " fill-opacity="1" fill-rule="evenodd"/><path fill="#83bbec" d="M 223.273438 271.726562 C 223.273438 273.257812 223.195312 274.785156 223.039062 276.308594 C 222.882812 277.832031 222.648438 279.34375 222.335938 280.84375 C 222.023438 282.34375 221.636719 283.828125 221.171875 285.292969 C 220.707031 286.757812 220.167969 288.195312 219.558594 289.609375 C 218.945312 291.023438 218.261719 292.40625 217.511719 293.757812 C 216.757812 295.105469 215.9375 296.417969 215.046875 297.6875 C 214.160156 298.960938 213.210938 300.1875 212.195312 301.371094 C 211.179688 302.554688 210.109375 303.6875 208.980469 304.769531 C 207.847656 305.851562 206.667969 306.878906 205.429688 307.851562 C 204.195312 308.820312 202.914062 309.730469 201.582031 310.582031 C 200.253906 311.433594 198.886719 312.21875 197.476562 312.9375 C 196.066406 313.660156 194.625 314.3125 193.148438 314.898438 C 191.671875 315.484375 190.167969 316 188.636719 316.445312 C 187.109375 316.890625 185.558594 317.261719 183.992188 317.558594 C 182.425781 317.855469 180.84375 318.082031 179.253906 318.230469 C 177.664062 318.382812 176.070312 318.457031 174.472656 318.457031 C 172.875 318.457031 171.277344 318.382812 169.6875 318.230469 C 168.097656 318.082031 166.519531 317.855469 164.949219 317.558594 C 163.382812 317.261719 161.835938 316.890625 160.304688 316.445312 C 158.777344 316 157.273438 315.484375 155.796875 314.898438 C 154.320312 314.3125 152.875 313.660156 151.464844 312.9375 C 150.058594 312.21875 148.6875 311.433594 147.359375 310.582031 C 146.03125 309.730469 144.746094 308.820312 143.511719 307.851562 C 142.277344 306.878906 141.09375 305.851562 139.964844 304.769531 C 138.832031 303.6875 137.761719 302.554688 136.746094 301.371094 C 135.734375 300.1875 134.78125 298.960938 133.894531 297.6875 C 133.007812 296.417969 132.1875 295.105469 131.433594 293.757812 C 130.679688 292.40625 129.996094 291.023438 129.386719 289.609375 C 128.773438 288.195312 128.234375 286.757812 127.769531 285.292969 C 127.308594 283.828125 126.917969 282.34375 126.609375 280.84375 C 126.296875 279.34375 126.0625 277.832031 125.90625 276.308594 C 125.75 274.785156 125.671875 273.257812 125.671875 271.726562 C 125.671875 270.199219 125.75 268.671875 125.90625 267.148438 C 126.0625 265.625 126.296875 264.113281 126.609375 262.613281 C 126.917969 261.109375 127.308594 259.628906 127.769531 258.164062 C 128.234375 256.699219 128.773438 255.261719 129.386719 253.847656 C 129.996094 252.433594 130.679688 251.050781 131.433594 249.699219 C 132.1875 248.351562 133.007812 247.039062 133.894531 245.765625 C 134.78125 244.496094 135.734375 243.265625 136.746094 242.085938 C 137.761719 240.902344 138.832031 239.769531 139.964844 238.6875 C 141.09375 237.605469 142.277344 236.578125 143.511719 235.605469 C 144.746094 234.636719 146.03125 233.726562 147.359375 232.875 C 148.6875 232.023438 150.058594 231.238281 151.464844 230.515625 C 152.875 229.796875 154.320312 229.140625 155.796875 228.558594 C 157.273438 227.972656 158.777344 227.457031 160.304688 227.011719 C 161.835938 226.566406 163.382812 226.195312 164.949219 225.898438 C 166.519531 225.597656 168.097656 225.375 169.6875 225.226562 C 171.277344 225.074219 172.875 225 174.472656 225 C 176.070312 225 177.664062 225.074219 179.253906 225.226562 C 180.84375 225.375 182.425781 225.597656 183.992188 225.898438 C 185.558594 226.195312 187.109375 226.566406 188.636719 227.011719 C 190.167969 227.457031 191.671875 227.972656 193.148438 228.558594 C 194.625 229.140625 196.066406 229.796875 197.476562 230.515625 C 198.886719 231.238281 200.253906 232.023438 201.582031 232.875 C 202.914062 233.726562 204.195312 234.636719 205.429688 235.605469 C 206.667969 236.578125 207.847656 237.605469 208.980469 238.6875 C 210.109375 239.769531 211.179688 240.902344 212.195312 242.085938 C 213.210938 243.265625 214.160156 244.496094 215.046875 245.765625 C 215.9375 247.039062 216.757812 248.351562 217.511719 249.699219 C 218.261719 251.050781 218.945312 252.433594 219.558594 253.847656 C 220.167969 255.261719 220.707031 256.699219 221.171875 258.164062 C 221.636719 259.628906 222.023438 261.109375 222.335938 262.613281 C 222.648438 264.113281 222.882812 265.625 223.039062 267.148438 C 223.195312 268.671875 223.273438 270.199219 223.273438 271.726562 Z M 223.273438 271.726562 " fill-opacity="1" fill-rule="nonzero"/><path fill="#83bbec" d="M 177.269531 460.3125 L 215.804688 460.3125 L 215.804688 599.59375 L 177.269531 599.59375 Z M 177.269531 460.3125 " fill-opacity="1" fill-rule="evenodd"/><path fill="#b75e71" d="M 272.296875 261.90625 L 294.894531 247.578125 L 365.671875 339.246094 L 343.09375 353.574219 Z M 272.296875 261.90625 " fill-opacity="1" fill-rule="evenodd"/><path fill="#b75e71" d="M 470.035156 239.449219 L 492.59375 252.390625 L 424.234375 350.472656 L 401.652344 337.554688 Z M 470.035156 239.449219 " fill-opacity="1" fill-rule="evenodd"/><path fill="#b75e71" d="M 342.691406 459.144531 L 380.101562 459.144531 L 380.101562 598.808594 L 342.691406 598.808594 Z M 342.691406 459.144531 " fill-opacity="1" fill-rule="evenodd"/><path fill="#b75e71" d="M 426.367188 334.65625 C 426.367188 322.984375 416.886719 313.507812 405.214844 313.507812 L 362.914062 313.507812 C 351.222656 313.507812 341.742188 322.984375 341.742188 334.65625 L 341.742188 452.988281 C 341.742188 464.660156 351.222656 474.136719 362.914062 474.136719 L 405.214844 474.136719 C 416.886719 474.136719 426.367188 464.660156 426.367188 452.988281 Z M 426.367188 334.65625 " fill-opacity="1" fill-rule="evenodd"/><path fill="#b75e71" d="M 432.605469 271.285156 C 432.605469 272.816406 432.527344 274.34375 432.371094 275.867188 C 432.214844 277.390625 431.980469 278.902344 431.667969 280.402344 C 431.355469 281.902344 430.96875 283.386719 430.503906 284.851562 C 430.039062 286.316406 429.5 287.753906 428.890625 289.167969 C 428.277344 290.582031 427.597656 291.964844 426.84375 293.3125 C 426.089844 294.664062 425.269531 295.972656 424.378906 297.246094 C 423.492188 298.519531 422.542969 299.746094 421.527344 300.929688 C 420.511719 302.113281 419.441406 303.246094 418.3125 304.328125 C 417.179688 305.410156 416 306.4375 414.761719 307.40625 C 413.527344 308.378906 412.246094 309.289062 410.914062 310.140625 C 409.585938 310.988281 408.21875 311.773438 406.808594 312.496094 C 405.398438 313.21875 403.957031 313.871094 402.480469 314.457031 C 401.003906 315.042969 399.5 315.558594 397.96875 316 C 396.441406 316.445312 394.890625 316.816406 393.324219 317.117188 C 391.757812 317.414062 390.175781 317.640625 388.585938 317.789062 C 386.996094 317.9375 385.402344 318.015625 383.804688 318.015625 C 382.207031 318.015625 380.609375 317.9375 379.019531 317.789062 C 377.429688 317.640625 375.851562 317.414062 374.28125 317.117188 C 372.714844 316.816406 371.167969 316.445312 369.636719 316 C 368.109375 315.558594 366.605469 315.042969 365.128906 314.457031 C 363.652344 313.871094 362.207031 313.21875 360.796875 312.496094 C 359.390625 311.773438 358.019531 310.988281 356.691406 310.140625 C 355.363281 309.289062 354.078125 308.378906 352.84375 307.40625 C 351.609375 306.4375 350.425781 305.410156 349.296875 304.328125 C 348.164062 303.246094 347.09375 302.113281 346.078125 300.929688 C 345.066406 299.746094 344.113281 298.519531 343.226562 297.246094 C 342.339844 295.972656 341.519531 294.664062 340.765625 293.3125 C 340.011719 291.964844 339.328125 290.582031 338.71875 289.167969 C 338.105469 287.753906 337.566406 286.316406 337.105469 284.851562 C 336.640625 283.386719 336.25 281.902344 335.941406 280.402344 C 335.628906 278.902344 335.394531 277.390625 335.238281 275.867188 C 335.082031 274.34375 335.003906 272.816406 335.003906 271.285156 C 335.003906 269.753906 335.082031 268.226562 335.238281 266.707031 C 335.394531 265.183594 335.628906 263.671875 335.941406 262.167969 C 336.25 260.667969 336.640625 259.183594 337.105469 257.722656 C 337.566406 256.257812 338.105469 254.816406 338.71875 253.402344 C 339.328125 251.988281 340.011719 250.609375 340.765625 249.257812 C 341.519531 247.90625 342.339844 246.597656 343.226562 245.324219 C 344.113281 244.050781 345.066406 242.824219 346.078125 241.640625 C 347.09375 240.457031 348.164062 239.324219 349.296875 238.242188 C 350.425781 237.160156 351.609375 236.136719 352.84375 235.164062 C 354.078125 234.191406 355.363281 233.28125 356.691406 232.433594 C 358.019531 231.582031 359.390625 230.796875 360.796875 230.074219 C 362.207031 229.351562 363.652344 228.699219 365.128906 228.113281 C 366.605469 227.527344 368.109375 227.011719 369.636719 226.570312 C 371.167969 226.125 372.714844 225.753906 374.28125 225.453125 C 375.851562 225.15625 377.429688 224.933594 379.019531 224.78125 C 380.609375 224.632812 382.207031 224.558594 383.804688 224.558594 C 385.402344 224.558594 386.996094 224.632812 388.585938 224.78125 C 390.175781 224.933594 391.757812 225.15625 393.324219 225.453125 C 394.890625 225.753906 396.441406 226.125 397.96875 226.570312 C 399.5 227.011719 401.003906 227.527344 402.480469 228.113281 C 403.957031 228.699219 405.398438 229.351562 406.808594 230.074219 C 408.21875 230.796875 409.585938 231.582031 410.914062 232.433594 C 412.246094 233.28125 413.527344 234.191406 414.761719 235.164062 C 416 236.136719 417.179688 237.160156 418.3125 238.242188 C 419.441406 239.324219 420.511719 240.457031 421.527344 241.640625 C 422.542969 242.824219 423.492188 244.050781 424.378906 245.324219 C 425.269531 246.597656 426.089844 247.90625 426.84375 249.257812 C 427.597656 250.609375 428.277344 251.988281 428.890625 253.402344 C 429.5 254.816406 430.039062 256.257812 430.503906 257.722656 C 430.96875 259.183594 431.355469 260.667969 431.667969 262.167969 C 431.980469 263.671875 432.214844 265.183594 432.371094 266.707031 C 432.527344 268.226562 432.605469 269.753906 432.605469 271.285156 Z M 432.605469 271.285156 " fill-opacity="1" fill-rule="nonzero"/><path fill="#b75e71" d="M 386.601562 459.871094 L 425.136719 459.871094 L 425.136719 599.148438 L 386.601562 599.148438 Z M 386.601562 459.871094 " fill-opacity="1" fill-rule="evenodd"/><path fill="#83bbec" d="M 569.449219 342.40625 L 544.335938 332.101562 L 493.378906 434.03125 L 518.496094 444.332031 Z M 569.449219 342.40625 " fill-opacity="1" fill-rule="evenodd"/><path fill="#83bbec" d="M 623.542969 322.320312 L 596.699219 335.121094 L 656.566406 438.335938 L 683.414062 425.539062 Z M 623.542969 322.320312 " fill-opacity="1" fill-rule="evenodd"/><path fill="#83bbec" d="M 546.023438 461.78125 L 583.4375 461.78125 L 583.4375 601.445312 L 546.023438 601.445312 Z M 546.023438 461.78125 " fill-opacity="1" fill-rule="evenodd"/><path fill="#83bbec" d="M 629.703125 337.292969 C 629.703125 325.621094 620.222656 316.140625 608.550781 316.140625 L 566.25 316.140625 C 554.578125 316.140625 545.097656 325.621094 545.097656 337.292969 L 545.097656 455.625 C 545.097656 467.296875 554.578125 476.773438 566.25 476.773438 L 608.550781 476.773438 C 620.222656 476.773438 629.703125 467.296875 629.703125 455.625 Z M 629.703125 337.292969 " fill-opacity="1" fill-rule="evenodd"/><path fill="#83bbec" d="M 635.941406 273.921875 C 635.941406 275.453125 635.863281 276.980469 635.703125 278.503906 C 635.546875 280.023438 635.3125 281.535156 635.003906 283.039062 C 634.691406 284.539062 634.300781 286.023438 633.839844 287.484375 C 633.375 288.949219 632.835938 290.390625 632.226562 291.804688 C 631.613281 293.21875 630.929688 294.601562 630.175781 295.949219 C 629.425781 297.300781 628.601562 298.609375 627.714844 299.882812 C 626.828125 301.15625 625.875 302.382812 624.863281 303.566406 C 623.847656 304.75 622.777344 305.882812 621.644531 306.964844 C 620.515625 308.046875 619.332031 309.074219 618.097656 310.042969 C 616.863281 311.015625 615.582031 311.925781 614.25 312.773438 C 612.921875 313.625 611.554688 314.410156 610.144531 315.132812 C 608.734375 315.855469 607.289062 316.507812 605.8125 317.09375 C 604.335938 317.679688 602.835938 318.195312 601.304688 318.636719 C 599.773438 319.082031 598.226562 319.453125 596.660156 319.753906 C 595.089844 320.050781 593.511719 320.273438 591.921875 320.425781 C 590.332031 320.574219 588.738281 320.648438 587.136719 320.648438 C 585.539062 320.648438 583.945312 320.574219 582.355469 320.425781 C 580.765625 320.273438 579.1875 320.050781 577.617188 319.753906 C 576.050781 319.453125 574.5 319.082031 572.972656 318.636719 C 571.441406 318.195312 569.941406 317.679688 568.464844 317.09375 C 566.988281 316.507812 565.542969 315.855469 564.132812 315.132812 C 562.722656 314.410156 561.355469 313.625 560.027344 312.773438 C 558.695312 311.925781 557.414062 311.015625 556.179688 310.042969 C 554.945312 309.074219 553.761719 308.046875 552.632812 306.964844 C 551.5 305.882812 550.429688 304.75 549.414062 303.566406 C 548.402344 302.382812 547.449219 301.15625 546.5625 299.882812 C 545.675781 298.609375 544.851562 297.300781 544.101562 295.949219 C 543.347656 294.601562 542.664062 293.21875 542.050781 291.804688 C 541.441406 290.390625 540.902344 288.949219 540.4375 287.484375 C 539.976562 286.023438 539.585938 284.539062 539.273438 283.039062 C 538.964844 281.535156 538.730469 280.023438 538.574219 278.503906 C 538.414062 276.980469 538.335938 275.453125 538.335938 273.921875 C 538.335938 272.390625 538.414062 270.863281 538.574219 269.339844 C 538.730469 267.820312 538.964844 266.304688 539.273438 264.804688 C 539.585938 263.304688 539.976562 261.820312 540.4375 260.355469 C 540.902344 258.894531 541.441406 257.453125 542.050781 256.039062 C 542.664062 254.625 543.347656 253.242188 544.101562 251.894531 C 544.851562 250.542969 545.675781 249.234375 546.5625 247.960938 C 547.449219 246.6875 548.402344 245.460938 549.414062 244.277344 C 550.429688 243.09375 551.5 241.960938 552.632812 240.878906 C 553.761719 239.796875 554.945312 238.769531 556.179688 237.800781 C 557.414062 236.828125 558.695312 235.917969 560.027344 235.070312 C 561.355469 234.21875 562.722656 233.433594 564.132812 232.710938 C 565.542969 231.988281 566.988281 231.335938 568.464844 230.75 C 569.941406 230.164062 571.441406 229.648438 572.972656 229.207031 C 574.5 228.761719 576.050781 228.390625 577.617188 228.089844 C 579.1875 227.792969 580.765625 227.566406 582.355469 227.417969 C 583.945312 227.269531 585.539062 227.191406 587.136719 227.191406 C 588.738281 227.191406 590.332031 227.269531 591.921875 227.417969 C 593.511719 227.566406 595.089844 227.792969 596.660156 228.089844 C 598.226562 228.390625 599.777344 228.761719 601.304688 229.207031 C 602.835938 229.648438 604.335938 230.164062 605.8125 230.75 C 607.289062 231.335938 608.734375 231.988281 610.144531 232.710938 C 611.554688 233.433594 612.921875 234.21875 614.25 235.070312 C 615.582031 235.917969 616.863281 236.828125 618.097656 237.800781 C 619.332031 238.769531 620.515625 239.796875 621.644531 240.878906 C 622.777344 241.960938 623.847656 243.09375 624.863281 244.277344 C 625.875 245.460938 626.828125 246.6875 627.714844 247.960938 C 628.601562 249.234375 629.425781 250.542969 630.175781 251.894531 C 630.929688 253.242188 631.613281 254.625 632.226562 256.039062 C 632.835938 257.453125 633.375 258.894531 633.839844 260.355469 C 634.300781 261.820312 634.691406 263.304688 635.003906 264.804688 C 635.3125 266.304688 635.546875 267.820312 635.703125 269.339844 C 635.863281 270.863281 635.941406 272.390625 635.941406 273.921875 Z M 635.941406 273.921875 " fill-opacity="1" fill-rule="nonzero"/><path fill="#83bbec" d="M 589.9375 462.507812 L 628.472656 462.507812 L 628.472656 601.785156 L 589.9375 601.785156 Z M 589.9375 462.507812 " fill-opacity="1" fill-rule="evenodd"/></svg>