<svg xmlns="http://www.w3.org/2000/svg" xmlns:xlink="http://www.w3.org/1999/xlink" width="1080" zoomAndPan="magnify" viewBox="0 0 810 809.999993" height="1080" preserveAspectRatio="xMidYMid meet" version="1.0"><defs><clipPath id="db83232375"><path d="M 632 238 L 736.410156 238 L 736.410156 342 L 632 342 Z M 632 238 " clip-rule="nonzero"/></clipPath><clipPath id="8ecc25a7f5"><path d="M 73.410156 438 L 169 438 L 169 534 L 73.410156 534 Z M 73.410156 438 " clip-rule="nonzero"/></clipPath><clipPath id="28e0a78740"><path d="M 172 254 L 351 254 L 351 694.613281 L 172 694.613281 Z M 172 254 " clip-rule="nonzero"/></clipPath><clipPath id="9ac6fabe8d"><path d="M 567 115.613281 L 633 115.613281 L 633 182 L 567 182 Z M 567 115.613281 " clip-rule="nonzero"/></clipPath></defs><path fill="#282737" d="M 604.371094 149.105469 C 602.203125 149.105469 600.035156 150.40625 599.167969 152.578125 C 598.300781 154.746094 598.519531 157.132812 600.035156 158.871094 L 695.214844 271.035156 L 440.898438 390.359375 C 438.949219 391.226562 437.648438 392.960938 437.648438 395.132812 C 437.429688 397.300781 438.515625 399.253906 440.03125 400.339844 C 441.765625 401.421875 443.933594 401.640625 445.886719 400.773438 L 707.140625 278.195312 C 708.875 277.324219 709.957031 276.023438 710.390625 274.070312 C 710.824219 272.335938 710.390625 270.382812 709.089844 269.082031 L 608.925781 151.277344 C 607.839844 149.972656 606.105469 149.105469 604.371094 149.105469 Z M 201.542969 286.65625 C 199.15625 286.65625 196.988281 287.957031 196.121094 289.910156 L 109.617188 473.667969 C 108.75 475.621094 108.964844 478.007812 110.265625 479.742188 C 111.566406 481.480469 113.953125 482.347656 116.121094 481.914062 L 262.683594 450.238281 L 307.777344 655.257812 C 308.210938 657.429688 309.730469 659.164062 311.679688 659.816406 C 313.632812 660.464844 316.019531 660.03125 317.535156 658.511719 C 319.054688 656.996094 319.703125 654.824219 319.269531 652.871094 L 274.171875 447.851562 L 405.777344 419.214844 C 408.160156 418.78125 409.894531 416.828125 410.328125 414.441406 C 410.761719 412.054688 409.679688 409.667969 407.511719 408.582031 L 204.363281 287.523438 C 203.496094 287.089844 202.410156 286.65625 201.542969 286.65625 Z M 203.929688 300.757812 L 388.867188 410.96875 L 125.007812 468.027344 Z M 683.726562 312.039062 C 681.121094 312.039062 678.953125 313.773438 678.085938 316.160156 L 619.765625 494.0625 C 618.683594 497.101562 620.417969 500.355469 623.453125 501.4375 C 626.488281 502.523438 629.738281 500.789062 630.824219 497.75 L 689.144531 319.847656 C 689.796875 318.113281 689.363281 316.160156 688.277344 314.640625 C 687.195312 313.125 685.460938 312.039062 683.726562 312.039062 Z M 683.726562 312.039062 " fill-opacity="1" fill-rule="nonzero"/><path fill="#2a8ceb" d="M 502.039062 414.65625 C 502.039062 436.136719 493.367188 456.964844 478.191406 472.152344 C 463.015625 487.335938 442.199219 496.015625 420.734375 496.015625 C 399.273438 496.015625 378.457031 487.335938 363.28125 472.152344 C 348.105469 456.964844 339.433594 436.136719 339.433594 414.65625 C 339.433594 393.179688 348.105469 372.351562 363.28125 357.164062 C 378.457031 341.976562 399.273438 333.300781 420.734375 333.300781 C 442.199219 333.300781 463.015625 341.976562 478.191406 357.164062 C 493.582031 372.351562 502.039062 392.960938 502.039062 414.65625 Z M 502.039062 414.65625 " fill-opacity="1" fill-rule="nonzero"/><g clip-path="url(#db83232375)"><path fill="#6e5ef1" d="M 736.410156 289.910156 C 736.410156 318.546875 713.210938 341.761719 684.59375 341.761719 C 655.972656 341.761719 632.773438 318.546875 632.773438 289.910156 C 632.773438 276.242188 638.195312 263.007812 647.953125 253.246094 C 657.707031 243.480469 670.714844 238.058594 684.59375 238.058594 C 713.210938 238.273438 736.410156 261.269531 736.410156 289.910156 Z M 736.410156 289.910156 " fill-opacity="1" fill-rule="nonzero"/></g><g clip-path="url(#8ecc25a7f5)"><path fill="#83e5de" d="M 168.371094 486.46875 C 168.371094 499.050781 163.382812 511.203125 154.496094 520.097656 C 145.605469 528.992188 133.464844 533.980469 120.890625 533.980469 C 108.316406 533.980469 96.175781 528.992188 87.285156 520.097656 C 78.394531 511.203125 73.410156 499.050781 73.410156 486.46875 C 73.410156 473.886719 78.394531 461.738281 87.285156 452.839844 C 96.175781 443.945312 108.316406 438.957031 120.890625 438.957031 C 133.464844 438.957031 145.605469 443.945312 154.496094 452.839844 C 163.382812 461.738281 168.371094 473.886719 168.371094 486.46875 Z M 168.371094 486.46875 " fill-opacity="1" fill-rule="nonzero"/></g><g clip-path="url(#28e0a78740)"><path fill="#83bbec" d="M 205.445312 254.980469 C 187.449219 254.980469 172.707031 269.734375 172.707031 287.738281 C 172.707031 305.746094 187.449219 320.5 205.445312 320.5 C 214.117188 320.5 222.355469 317.027344 228.644531 310.953125 C 234.714844 304.878906 238.183594 296.417969 238.183594 287.738281 C 238.183594 279.0625 234.714844 270.816406 228.644531 264.527344 C 222.574219 258.234375 214.117188 254.980469 205.445312 254.980469 Z M 317.320312 629.007812 C 308.644531 629.007812 300.40625 632.480469 294.121094 638.554688 C 288.050781 644.628906 284.582031 653.089844 284.582031 661.769531 C 284.582031 670.445312 288.050781 678.691406 294.121094 684.980469 C 300.191406 691.058594 308.644531 694.527344 317.320312 694.527344 C 325.992188 694.527344 334.230469 691.058594 340.515625 684.980469 C 346.804688 678.90625 350.054688 670.445312 350.054688 661.769531 C 350.054688 653.089844 346.585938 644.84375 340.515625 638.554688 C 334.445312 632.261719 325.992188 629.007812 317.320312 629.007812 Z M 317.320312 629.007812 " fill-opacity="1" fill-rule="nonzero"/></g><path fill="#83e5de" d="M 654.023438 505.5625 C 654.023438 514.238281 650.554688 522.484375 644.480469 528.773438 C 638.410156 535.066406 629.957031 538.320312 621.285156 538.320312 C 612.613281 538.320312 604.371094 534.851562 598.085938 528.773438 C 591.796875 522.699219 588.546875 514.238281 588.546875 505.5625 C 588.546875 487.554688 603.289062 472.800781 621.285156 472.800781 C 639.496094 472.800781 654.023438 487.335938 654.023438 505.5625 Z M 654.023438 505.5625 " fill-opacity="1" fill-rule="nonzero"/><g clip-path="url(#9ac6fabe8d)"><path fill="#2a8ceb" d="M 632.992188 148.457031 C 632.992188 157.132812 629.523438 165.378906 623.453125 171.667969 C 617.382812 177.746094 608.925781 181.214844 600.253906 181.214844 C 591.582031 181.214844 583.34375 177.746094 577.054688 171.667969 C 570.984375 165.59375 567.515625 157.132812 567.515625 148.457031 C 567.515625 139.777344 570.984375 131.53125 577.054688 125.242188 C 583.125 119.167969 591.582031 115.695312 600.253906 115.695312 C 608.925781 115.695312 617.164062 119.167969 623.453125 125.242188 C 629.523438 131.316406 632.992188 139.777344 632.992188 148.457031 Z M 632.992188 148.457031 " fill-opacity="1" fill-rule="nonzero"/></g></svg>