<?xml version="1.0" encoding="UTF-8"?>
<svg width="200px" height="200px" viewBox="0 0 200 200" version="1.1" xmlns="http://www.w3.org/2000/svg" xmlns:xlink="http://www.w3.org/1999/xlink">
    <title>Logo (Dark)</title>
    <g id="Logo-(Dark)" stroke="none" stroke-width="1" fill="none" fill-rule="evenodd">
        <g id="Group" transform="translate(24.000000, 13.000000)" fill="#FFFFFF" fill-rule="nonzero">
            <g id="Logo">
                <path d="M147.556919,56.0220625 C149.237165,56.0220625 150.612681,57.0270713 150.612681,58.700684 L150.688864,114.884458 C150.688864,127.032869 141.441162,140.123213 127.686,140.123213 L93.3869727,140.123213 C91.7067265,140.123213 89.2646563,139.580761 87.9653223,140.636231 L45.4131981,174.533199 C44.1096319,175.592874 43.0473101,174.739247 43.0473101,173.069839 L43.0642395,140.514284 C43.0642395,138.849081 41.6887233,137.389926 40.0084773,137.389926 L24.6746453,137.368901 C12.7224672,137.368901 0.651783083,125.762942 5.01391043e-14,113.879449 L5.01391043e-14,90.2260007 C5.01391043e-14,90.0728693 0.0183539935,89.9430076 0.0529935987,89.8334394 L13.4013707,89.8329425 C14.1154007,90.0411448 14.5762399,90.4917995 14.5762399,91.4580823 L14.6566547,113.622941 C14.6566547,117.903689 20.0402137,123.256727 24.4884216,123.937947 L53.7721045,123.643593 C55.4523505,123.643593 56.8278668,124.997622 56.8278668,126.671234 L56.8194021,143.853099 C56.8194021,145.522507 57.8817239,146.027114 59.1852898,144.96744 L83.0473227,125.561099 C84.3508886,124.501425 86.7887269,123.639388 88.4689726,123.639388 L127.944173,123.664618 C132.633625,123.39129 136.620506,117.899485 136.904075,113.500994 L136.853286,58.700684 C136.853286,57.0312763 138.228802,56.0220625 139.913281,56.0220625 L147.556919,56.0220625 Z" id="Combined-Shape"></path>
                <path d="M33.3530422,76.9043783 C32.5657112,78.3845586 30.5399299,79.5914099 28.8461043,79.5914099 L3.0727187,79.5914099 C1.383149,79.5914099 6.01669252e-14,78.2247661 6.01669252e-14,76.5553583 L6.01669252e-14,68.9610244 C6.01669252e-14,67.2916166 1.383149,65.9249733 3.0727187,65.9249733 L20.4876286,65.9249733 C22.1771982,65.9249733 24.2072354,64.7139168 24.9945663,63.2379411 L48.3123305,19.4759074 C49.0996615,17.9999322 50.4785546,17.9452665 51.3765375,19.3581658 L71.0598118,50.2989792 C71.9620507,51.7160836 73.3664787,51.674033 74.1836003,50.210673 L101.638044,1.12503632 C102.455166,-0.334118646 103.872362,-0.38037428 104.787368,1.02411494 L123.610962,29.9549108 C124.525968,31.3594 126.65389,32.5073808 128.347715,32.5073808 L147.545823,32.5073808 C149.235393,32.5073808 150.618542,33.8740245 150.618542,35.5476374 L150.618542,43.1377662 C150.618542,44.8071741 149.235393,46.1780229 147.545823,46.1780229 L120.785082,46.1780229 C119.095512,46.1780229 116.963335,45.0300421 116.048329,43.6255529 L105.664072,27.7094101 C104.749066,26.3049209 103.327614,26.3511765 102.510492,27.8145366 L74.9496521,77.0683754 C74.1325306,78.5275307 72.7281019,78.5653762 71.8258636,77.1566816 L52.4532658,46.6826298 C51.5552829,45.2697304 50.1721339,45.3201911 49.384803,46.7961663 L33.3530422,76.9043783 Z" id="logo-path"></path>
            </g>
        </g>
    </g>
</svg>